# xmcd
#
# Track frame offsets: 
#        150
#        21075
#        35935
#        61058
#        84924
#        102474
#        122391
#        145714
#        167055
#        184242
#        204372
#
# Disc length: 3036 seconds
#
# Revision: 2
# Processed by: cddbd v1.5.2PL0 Copyright (c) Steve Scherf et al.
# Submitted via: ExactAudioCopy v0.99pb4
#
DISCID=8d0bda0b
DTITLE=Jake E. Lee - Retraced
DYEAR=2005
DGENRE=Blues
TTITLE0=Whiskey Train [Procol Harum cover]
TTITLE1=Evil [Cactus cover]
TTITLE2=Way Back To The Bone [Trapeze cover]
TTITLE3=I'll Be Creepin' [Free cover]
TTITLE4=Guess I'll Go Away [Johnny Winter cover]
TTITLE5=Love Is Worth The Blues [Leslie West cover]
TTITLE6=I Come Tumblin' [Grand Funk cover]
TTITLE7=Woman [James Gang cover]
TTITLE8=A Hard Way To Go [Savoy Brown cover]
TTITLE9=I Can't Stand It [Robin Trower cover]
TTITLE10=Rock Candy [Montrose cover]
EXTD=
EXTT0=
EXTT1=
EXTT2=
EXTT3=
EXTT4=
EXTT5=
EXTT6=
EXTT7=
EXTT8=
EXTT9=
EXTT10=
PLAYORDER=
